
<svg xmlns="http://www.w3.org/2000/svg" viewBox="0 0 128 128">
  <path fill="#F7A80D" d="M38.089 77.466l-11.4 4.896 10.559 4.514 12.241-4.514-11.4-4.896zm-17.138 6.12l-.382 22.034 16.679 7.345V90.089l-16.297-6.503zm34.276 0l-15.073 5.739V110.5l15.073-6.121V83.586zm17.979-68.551L59.152 8.756l-15.073 5.739 14.209 6.121 15.918-5.581zm-32.795 10.255l-15.918 5.739 15.918 6.879 13.347-5.739-13.347-6.879zM16.919 30.43l-1.7 16.641 15.147 7.473V36.303l-13.552-5.873zm42.587-.515v17.925l11.93-5.514V29.783l-11.93-7.345v7.477zm-19.964 5.686l-13.464 5.514v25.145l13.464 7.345V35.601z" />
  <path fill-rule="evenodd" clip-rule="evenodd" fill="#F7A80D" d="M18.276 83.048a.733.733 0 01-1.278-.716c.253-.457.547-.881.871-1.265a.733.733 0 011.08.994 5.87 5.87 0 00-.673.987zM20.815 79.958a.733.733 0 01-1.022-.102 6.54 6.54 0 00-2.39-1.778.733.733 0 01.526-1.359 7.996 7.996 0 12.926 2.175.733.733 0 01-.102 1.028l.062-.064zM22.345 76.468a.733.733 0 01-1.016-.17 11.98 11.98 0 00-5.102-3.95.733.733 0 11.462-1.389 13.447 13.447 0 15.742 4.438.733.733 0 01-.169 1.021l.083-.05z" />
  <path fill-rule="evenodd" clip-rule="evenodd" fill="#F7A80D" d="M89.476 49.421c-3.199 0-5.972 1.184-7.938 3.053-.217.217-.458.329-.726.329-.268 0-.489-.112-.706-.329l-2.439-1.621c-.235-.156-.34-.435-.34-.706 0-.293.138-.551.404-.733 2.951-2.527 6.795-3.95 11.746-3.95 4.435 0 8.025 1.214 10.472 3.518.273.273.419.53.419.835 0 .273-.114.532-.352.714l-2.665 1.423c-.21.131-.451.202-.703.202-.321 0-.6-.133-.818-.368-1.544-1.423-3.571-2.101-6.026-2.101h-.329l.001-.266zm9.371 7.938c0 .33-.161.635-.418.828a24.442 24.442 0 01-3.38 2.287c-.329.329-.743.329-1.131 0-1.423-1.184-3.095-1.761-5.017-1.761-1.842 0-3.496.563-4.83 1.465-.245.245-.563.417-.891.417-.35 0-.673-.196-.866-.486l-1.804-2.732c-.142-.227-.21-.494-.21-.761a1.2 1.2 0 01.427-.916c2.331-1.82 5.513-2.929 9.077-2.929 3.304 0 6.026.88 8.268 2.649.229.23.342.538.342.842-.003.355.003.72-.003 1.077h.359l-.923.02zm5.073 7.473c0 .368-.151.723-.431.986-5.057 4.826-11.547 7.335-19.489 7.335-8.207 0-14.1-2.331-19.186-7.343a1.337 1.337 0 01-.431-.986c0-.368.168-.724.469-.957l3.211-2.439c.235-.186.522-.286.815-.286.364 0 .733.151.986.432 3.538 3.834 7.815 5.766 13.743 5.766 5.928 0 10.658-2.038 14.1-5.766.253-.269.592-.432.957-.432.269 0 .549.099.815.298l3.095 2.399c.339.245.517.612.517.993h-.171z" />
  <path d="M47.048 66.013l-3.055-8.25h.314l1.741 5.12.886-5.12h.33l.886 5.12 1.741-5.12h.314l-3.055 8.25h-.33l-.886-4.773-.886 4.773h-.33v-.33z" fill="#F7A80D" />
  <path d="M53.875 61.59c0-1.188.962-2.15 2.15-2.15a2.15 2.15 0 110 4.3 2.15 2.15 0 01-2.15-2.15zm3.926 0a1.777 1.777 0 00-1.776-1.776c-.978 0-1.776.798-1.776 1.776s.798 1.776 1.776 1.776c.978 0 1.776-.798 1.776-1.776z" fill="#F7A80D" />
  <path d="M61.826 66.013v-6.26h.33v.911a2.142 2.142 0 12.15-2.143c0-1.188.962-2.15 2.15-2.15.593 0 1.162.241 1.573.666l-.234.244a1.776 1.776 0 00-1.339-.586c-.978 0-1.776.798-1.776 1.776a1.777 1.777 0 001.776 1.776c.546 0 1.066-.251 1.404-.68l.234.244a2.144 2.144 0 01-1.638.76 2.142 2.142 0 01-2.15-2.143v6.26l-.33.325z" fill="#F7A80D" />
  <path d="M72.855 65.67c-.411.425-.98.666-1.573.666-1.188 0-2.15-.962-2.15-2.15v-4.756h.33v4.756c0 1.003.816 1.821 1.82 1.821.503 0 .983-.209 1.327-.578l.234.244-.988-.003zm.33-6.24v.33h-.33v-.33h.33z" fill="#F7A80D" />
  <path d="M76.251 66.013v-4.756h-.666v-.33h.666v-1.331l.33-.169v1.5h.666v.33h-.666v4.756h-.33z" fill="#F7A80D" />
  <path d="M82.123 63.84l-.234-.244c-.338.429-.858.68-1.404.68a1.777 1.777 0 01-1.776-1.776c0-.978.798-1.776 1.776-1.776.546 0 1.066.251 1.404.68l.234-.244a2.145 2.145 0 00-1.638-.76c-1.188 0-2.15.962-2.15 2.15s.962 2.15 2.15 2.15c.593 0 1.162-.241 1.573-.666l.065.806z" fill="#F7A80D" />
  <path d="M83.88 66.013h-.33v-6.593h.33v6.593zm0-7.259h-.33v-.666h.33v.666z" fill="#F7A80D" />
  <path d="M85.636 66.013v-6.593h.33v3.969l3.384-3.969h.403l-2.646 3.055 2.778 3.538h-.436l-2.563-3.252-.92 1.049v2.203h-.33z" fill="#F7A80D" />
</svg>
