
<svg xmlns="http://www.w3.org/2000/svg" viewBox="0 0 24 24" fill="none">
  <path d="M0 0h24v24H0V0z" fill="#000"/>
  <path d="M3 3h18v18H3V3z" fill="#000"/>
  <path d="M6.349 17.376h4.376V5.777H6.35v11.599zM6.349 20.174h11.302v-1.95H6.349v1.95z" fill="#fff"/>
  <path d="M12.936 13.045l1.627 2.22a2.026 2.026 0 0 1 .406.852H17l-2.712-3.768 2.424-3.378h-1.883s-1.356 2.042-1.584 2.4c-.228-.358-1.512-2.4-1.512-2.4h-2.1l2.448 3.42-2.628 3.726h1.968s1.44-2.042 1.656-2.4l-.141-.672z" fill="#fff"/>
</svg>
