
<svg xmlns="http://www.w3.org/2000/svg" viewBox="0 0 24 24">
  <path fill="#4285F4" d="M6.972 15.583H5.250l-.416.833H3.917l2.083-4.166h.75l2.083 4.166h-.917l-.944-4.166zm-.222-1.666l-.611-1.25-.611 1.25h1.222zM9.361 16.416h-.833v-4.166h.833v4.166zm3.278-3.75v1.25c0 .23-.078.417-.236.558a.806.806 0 0 1-.597.213.806.806 0 0 1-.597-.213c-.158-.141-.236-.328-.236-.558v-1.25c0-.23.078-.417.236-.558a.806.806 0 0 1 .597-.213c.23 0 .43.071.597.213.158.141.236.328.236.558zm-.833 0c0-.092-.026-.169-.078-.23a.228.228 0 0 0-.236-.15.228.228 0 0 0-.236.15c-.052.062-.078.138-.078.23v1.25c0 .092.026.169.078.23a.228.228 0 0 0 .236.15.228.228 0 0 0 .236-.15c.052-.062.078-.138.078-.23v-1.25zm2.916 3.75h-.833v-3.333h.833v.416c.12-.297.344-.46.667-.488.187 0 .346.06.475.178.128.12.208.299.24.536v2.69h-.833V13.5c0-.11-.026-.193-.077-.25-.051-.055-.124-.083-.219-.083-.094 0-.169.028-.224.083-.056.057-.082.14-.082.25v2.917zm4.472-4.166l-1.666 4.166h-.917l.625-1.388-.972-2.778h.944l.486 1.611.43-1.611h.917z" />
  <path fill="#34A853" d="M11.974 3.6L9.4 6.172l2.574 2.573h4.301L11.974 3.6zM6.818 8.745v3.782l2.572 2.573 2.574-2.573H6.818z" />
  <path fill="#FBBC04" d="M6.818 8.745L4.245 6.172 6.818 3.6v5.145z" />
  <path fill="#EA4335" d="M6.818 3.6H2.528v5.145h4.29V3.6z" />
</svg>
